<?xml version="1.0" encoding="UTF-8"?>
<svg xmlns="http://www.w3.org/2000/svg" viewBox="0 0 512 512">
  <defs>
    <linearGradient id="bg" x1="0" y1="0" x2="0" y2="1">
      <stop offset="0%" stop-color="#fff5f8"/>
      <stop offset="100%" stop-color="#eaf6ff"/>
    </linearGradient>
    <linearGradient id="stone" x1="0" y1="0" x2="1" y2="1">
      <stop offset="0%" stop-color="#7c3aed"/>
      <stop offset="100%" stop-color="#ec4899"/>
    </linearGradient>
    <linearGradient id="stoneDark" x1="0" y1="0" x2="1" y2="1">
      <stop offset="0%" stop-color="#5b1ec4"/>
      <stop offset="100%" stop-color="#c026d3"/>
    </linearGradient>
  </defs>

  <!-- Rounded-square background -->
  <rect width="512" height="512" rx="96" fill="url(#bg)"/>

  <!-- Greek column, centred. Drawn bottom-up so the abacus sits on top. -->
  <g fill="url(#stone)" stroke="#5b1ec4" stroke-width="6" stroke-linejoin="round">
    <!-- Plinth (square base, broadest at the bottom) -->
    <rect x="116" y="404" width="280" height="32" rx="6"/>
    <!-- Torus (trapezoidal collar above plinth) -->
    <polygon points="140,372 372,372 392,404 120,404"/>
    <!-- Shaft (slight taper — narrower at the top) -->
    <polygon points="170,158 342,158 372,372 140,372"/>
    <!-- Echinus (curved capital underside, trapezoid) -->
    <polygon points="132,120 380,120 342,158 170,158"/>
    <!-- Abacus (flat slab on top) -->
    <rect x="112" y="92" width="288" height="32" rx="6"/>
  </g>

  <!-- Fluting — vertical grooves on the shaft. Follows the slight taper. -->
  <g stroke="url(#stoneDark)" stroke-width="5" stroke-linecap="round" fill="none" opacity="0.55">
    <line x1="200" y1="172" x2="188" y2="358"/>
    <line x1="228" y1="170" x2="220" y2="360"/>
    <line x1="256" y1="168" x2="256" y2="361"/>
    <line x1="284" y1="170" x2="292" y2="360"/>
    <line x1="312" y1="172" x2="324" y2="358"/>
  </g>
</svg>
